<?xml version="1.0" encoding="UTF-8" standalone="no"?>
<!-- Created with Inkscape (http://www.inkscape.org/) -->

<svg xmlns:dc="http://purl.org/dc/elements/1.1/" xmlns:cc="http://creativecommons.org/ns#" xmlns:rdf="http://www.w3.org/1999/02/22-rdf-syntax-ns#" xmlns:svg="http://www.w3.org/2000/svg" xmlns="http://www.w3.org/2000/svg" xmlns:sodipodi="http://sodipodi.sourceforge.net/DTD/sodipodi-0.dtd" xmlns:inkscape="http://www.inkscape.org/namespaces/inkscape" width="105.83334mm" height="105.83334mm" viewBox="0 0 105.83334 105.83334" version="1.1" id="svg8" inkscape:version="0.92.3 (2405546, 2018-03-11)" sodipodi:docname="git-webite-brand.svg" inkscape:export-filename="/home/kuba/projects/jcubic/isomorphic-git.github.io/website/static/img/usedby/git-web-term.png" inkscape:export-xdpi="245.75999" inkscape:export-ydpi="245.75999">
  <defs id="defs2" />
  <sodipodi:namedview id="base" pagecolor="#ffffff" bordercolor="#666666" borderopacity="1.0" inkscape:pageopacity="0.0" inkscape:pageshadow="2" inkscape:zoom="0.98994949" inkscape:cx="304.56092" inkscape:cy="220.81171" inkscape:document-units="mm" inkscape:current-layer="layer1" showgrid="false" fit-margin-top="0" fit-margin-left="0" fit-margin-right="0" fit-margin-bottom="0" inkscape:window-width="1920" inkscape:window-height="985" inkscape:window-x="0" inkscape:window-y="33" inkscape:window-maximized="1" />
  <metadata id="metadata5">
    <rdf:RDF>
      <cc:Work rdf:about="">
        <dc:format>image/svg+xml</dc:format>
        <dc:type rdf:resource="http://purl.org/dc/dcmitype/StillImage" />
        <dc:title></dc:title>
      </cc:Work>
    </rdf:RDF>
  </metadata>
  <g inkscape:label="Layer 1" inkscape:groupmode="layer" id="layer1" transform="translate(-5.0781207,-10.759731)">
    <rect style="fill:#000000;fill-opacity:1;stroke-width:0.92504507;stroke-miterlimit:4;stroke-dasharray:none;stroke-opacity:1" id="rect839" width="105.83334" height="105.83334" x="5.0781207" y="10.759731" rx="52.916672" ry="52.916672" />
    <flowRoot xml:space="preserve" id="flowRoot815" style="font-style:normal;font-weight:normal;font-size:40px;line-height:1.25;font-family:sans-serif;letter-spacing:0px;word-spacing:0px;fill:#000000;fill-opacity:1;stroke:none" transform="scale(0.26458333)"><flowRegion id="flowRegion817"><rect id="rect819" width="414.28571" height="348.57144" x="180" y="111.09111" /></flowRegion><flowPara id="flowPara821"></flowPara></flowRoot>    <g aria-label="  ____ ___ _____ 
 / ___|_ _|_   _| 
| |  _ | |  | |   
| |_| || |  | |  
 \____|___| |_|  " transform="matrix(0.20074209,0,0,0.20074209,136.80818,24.215428)" style="font-style:normal;font-variant:normal;font-weight:bold;font-stretch:normal;font-size:40px;line-height:1.25;font-family:monospace;-inkscape-font-specification:'monospace Bold';letter-spacing:0px;word-spacing:0px;fill:#aaaaa0;fill-opacity:1;stroke:none" id="flowRoot823">
      <path d="m -524.93555,97.917969 v 3.710941 h -24.08203 v -3.710941 z" id="path965" inkscape:connector-curvature="0" />
      <path d="m -500.87305,97.917969 v 3.710941 h -24.08203 v -3.710941 z" id="path967" inkscape:connector-curvature="0" />
      <path d="m -476.81055,97.917969 v 3.710941 h -24.08203 v -3.710941 z" id="path969" inkscape:connector-curvature="0" />
      <path d="m -452.74805,97.917969 v 3.710941 h -24.08203 v -3.710941 z" id="path971" inkscape:connector-curvature="0" />
      <path d="m -404.62305,97.917969 v 3.710941 h -24.08203 v -3.710941 z" id="path973" inkscape:connector-curvature="0" />
      <path d="m -380.56055,97.917969 v 3.710941 h -24.08203 v -3.710941 z" id="path975" inkscape:connector-curvature="0" />
      <path d="m -356.49805,97.917969 v 3.710941 h -24.08203 v -3.710941 z" id="path977" inkscape:connector-curvature="0" />
      <path d="m -308.37305,97.917969 v 3.710941 h -24.08203 v -3.710941 z" id="path979" inkscape:connector-curvature="0" />
      <path d="m -284.31055,97.917969 v 3.710941 h -24.08203 v -3.710941 z" id="path981" inkscape:connector-curvature="0" />
      <path d="m -260.24805,97.917969 v 3.710941 h -24.08203 v -3.710941 z" id="path983" inkscape:connector-curvature="0" />
      <path d="m -236.18555,97.917969 v 3.710941 h -24.08203 v -3.710941 z" id="path985" inkscape:connector-curvature="0" />
      <path d="m -212.12305,97.917969 v 3.710941 h -24.08203 v -3.710941 z" id="path987" inkscape:connector-curvature="0" />
      <path d="m -555.52148,113.03516 h 4.3164 l -15.35156,32.87109 h -4.31641 z" id="path989" inkscape:connector-curvature="0" />
      <path d="m -500.87305,147.91797 v 3.71094 h -24.08203 v -3.71094 z" id="path991" inkscape:connector-curvature="0" />
      <path d="m -476.81055,147.91797 v 3.71094 h -24.08203 v -3.71094 z" id="path993" inkscape:connector-curvature="0" />
      <path d="m -452.74805,147.91797 v 3.71094 h -24.08203 v -3.71094 z" id="path995" inkscape:connector-curvature="0" />
      <path d="m -438.5293,111.62891 v 40 h -4.43359 v -40 z" id="path997" inkscape:connector-curvature="0" />
      <path d="m -404.62305,147.91797 v 3.71094 h -24.08203 v -3.71094 z" id="path999" inkscape:connector-curvature="0" />
      <path d="m -356.49805,147.91797 v 3.71094 h -24.08203 v -3.71094 z" id="path1001" inkscape:connector-curvature="0" />
      <path d="m -342.2793,111.62891 v 40 h -4.43359 v -40 z" id="path1003" inkscape:connector-curvature="0" />
      <path d="m -308.37305,147.91797 v 3.71094 h -24.08203 v -3.71094 z" id="path1005" inkscape:connector-curvature="0" />
      <path d="m -212.12305,147.91797 v 3.71094 h -24.08203 v -3.71094 z" id="path1007" inkscape:connector-curvature="0" />
      <path d="m -197.9043,111.62891 v 40 h -4.43359 v -40 z" id="path1009" inkscape:connector-curvature="0" />
      <path d="m -582.9043,161.62891 v 40 h -4.43359 v -40 z" id="path1011" inkscape:connector-curvature="0" />
      <path d="m -534.7793,161.62891 v 40 h -4.43359 v -40 z" id="path1013" inkscape:connector-curvature="0" />
      <path d="m -452.74805,197.91797 v 3.71094 h -24.08203 v -3.71094 z" id="path1015" inkscape:connector-curvature="0" />
      <path d="m -414.4668,161.62891 v 40 h -4.43359 v -40 z" id="path1017" inkscape:connector-curvature="0" />
      <path d="m -366.3418,161.62891 v 40 h -4.43359 v -40 z" id="path1019" inkscape:connector-curvature="0" />
      <path d="m -294.1543,161.62891 v 40 h -4.43359 v -40 z" id="path1021" inkscape:connector-curvature="0" />
      <path d="m -246.0293,161.62891 v 40 h -4.43359 v -40 z" id="path1023" inkscape:connector-curvature="0" />
      <path d="m -582.9043,211.62891 v 40 h -4.43359 v -40 z" id="path1025" inkscape:connector-curvature="0" />
      <path d="m -534.7793,211.62891 v 40 h -4.43359 v -40 z" id="path1027" inkscape:connector-curvature="0" />
      <path d="m -500.87305,247.91797 v 3.71094 h -24.08203 v -3.71094 z" id="path1029" inkscape:connector-curvature="0" />
      <path d="m -486.6543,211.62891 v 40 h -4.43359 v -40 z" id="path1031" inkscape:connector-curvature="0" />
      <path d="m -438.5293,211.62891 v 40 h -4.43359 v -40 z" id="path1033" inkscape:connector-curvature="0" />
      <path d="m -414.4668,211.62891 v 40 h -4.43359 v -40 z" id="path1035" inkscape:connector-curvature="0" />
      <path d="m -366.3418,211.62891 v 40 h -4.43359 v -40 z" id="path1037" inkscape:connector-curvature="0" />
      <path d="m -294.1543,211.62891 v 40 h -4.43359 v -40 z" id="path1039" inkscape:connector-curvature="0" />
      <path d="m -246.0293,211.62891 v 40 h -4.43359 v -40 z" id="path1041" inkscape:connector-curvature="0" />
      <path d="m -566.55664,263.03516 15.35156,32.87109 h -4.35547 l -15.35156,-32.87109 z" id="path1043" inkscape:connector-curvature="0" />
      <path d="m -524.93555,297.91797 v 3.71094 h -24.08203 v -3.71094 z" id="path1045" inkscape:connector-curvature="0" />
      <path d="m -500.87305,297.91797 v 3.71094 h -24.08203 v -3.71094 z" id="path1047" inkscape:connector-curvature="0" />
      <path d="m -476.81055,297.91797 v 3.71094 h -24.08203 v -3.71094 z" id="path1049" inkscape:connector-curvature="0" />
      <path d="m -452.74805,297.91797 v 3.71094 h -24.08203 v -3.71094 z" id="path1051" inkscape:connector-curvature="0" />
      <path d="m -438.5293,261.62891 v 40 h -4.43359 v -40 z" id="path1053" inkscape:connector-curvature="0" />
      <path d="m -404.62305,297.91797 v 3.71094 h -24.08203 v -3.71094 z" id="path1055" inkscape:connector-curvature="0" />
      <path d="m -380.56055,297.91797 v 3.71094 h -24.08203 v -3.71094 z" id="path1057" inkscape:connector-curvature="0" />
      <path d="m -356.49805,297.91797 v 3.71094 h -24.08203 v -3.71094 z" id="path1059" inkscape:connector-curvature="0" />
      <path d="m -342.2793,261.62891 v 40 h -4.43359 v -40 z" id="path1061" inkscape:connector-curvature="0" />
      <path d="m -294.1543,261.62891 v 40 h -4.43359 v -40 z" id="path1063" inkscape:connector-curvature="0" />
      <path d="m -260.24805,297.91797 v 3.71094 h -24.08203 v -3.71094 z" id="path1065" inkscape:connector-curvature="0" />
      <path d="m -246.0293,261.62891 v 40 h -4.43359 v -40 z" id="path1067" inkscape:connector-curvature="0" />
    </g>
  </g>
</svg>
