<?xml version="1.0" standalone="no"?>
<!DOCTYPE svg PUBLIC "-//W3C//DTD SVG 20010904//EN"
 "http://www.w3.org/TR/2001/REC-SVG-20010904/DTD/svg10.dtd">
<svg version="1.0" xmlns="http://www.w3.org/2000/svg"
 width="700.000000pt" height="700.000000pt" viewBox="0 0 700.000000 700.000000"
 preserveAspectRatio="xMidYMid meet">
<metadata>
Created by potrace 1.11, written by Peter Selinger 2001-2013
</metadata>
<g transform="translate(0.000000,700.000000) scale(0.100000,-0.100000)"
fill="#000000" stroke="none">
<path d="M3379 6486 c-97 -37 -132 -67 -414 -347 l-290 -288 346 -347 346
-346 75 13 c200 33 397 -71 485 -258 30 -62 36 -88 41 -163 3 -53 0 -108 -7
-136 l-12 -48 331 -331 331 -331 72 14 c227 46 452 -95 523 -327 18 -61 18
-185 -1 -248 -47 -158 -170 -276 -332 -318 -304 -79 -602 182 -562 495 4 36
13 79 19 95 11 29 8 32 -299 339 l-311 311 0 -817 0 -818 40 -25 c129 -82 210
-230 210 -385 0 -419 -515 -619 -795 -308 -134 149 -156 358 -57 535 33 60
116 142 175 173 l47 25 0 825 0 826 -43 21 c-115 56 -215 196 -236 329 -10 64
-1 168 18 218 12 30 12 30 -326 368 -186 186 -343 338 -348 338 -6 0 -423
-413 -926 -917 -1051 -1053 -974 -963 -974 -1148 0 -178 -132 -30 1409 -1573
1552 -1554 1410 -1427 1591 -1427 92 0 105 3 170 33 67 32 124 87 1412 1375
1288 1288 1343 1345 1375 1412 31 65 33 78 33 170 0 178 132 30 -1409 1573
-1539 1542 -1409 1424 -1580 1429 -59 2 -103 -2 -127 -11z"/>
</g>
</svg>
