<?xml version="1.0" standalone="no"?>
<!DOCTYPE svg PUBLIC "-//W3C//DTD SVG 20010904//EN"
 "http://www.w3.org/TR/2001/REC-SVG-20010904/DTD/svg10.dtd">
<svg version="1.0" xmlns="http://www.w3.org/2000/svg"
 width="700.000000pt" height="700.000000pt" viewBox="0 0 700.000000 700.000000"
 preserveAspectRatio="xMidYMid meet">
<metadata>
Created by potrace 1.11, written by Peter Selinger 2001-2013
</metadata>
<g transform="translate(0.000000,700.000000) scale(0.100000,-0.100000)"
fill="#000000" stroke="none">
<path d="M3405 6490 c-100 -24 -146 -61 -470 -382 l-260 -257 345 -346 345
-345 50 7 c242 36 442 -77 529 -296 23 -59 31 -184 17 -251 l-12 -54 333 -333
c182 -182 334 -330 338 -328 9 6 93 18 140 20 178 7 360 -118 430 -296 31 -76
35 -211 10 -293 -57 -184 -222 -312 -415 -321 -87 -5 -142 7 -222 45 -87 43
-167 125 -212 219 -34 72 -36 81 -36 176 1 55 4 121 9 147 l8 47 -306 308
-305 308 -1 -816 0 -816 46 -33 c26 -18 57 -45 70 -59 12 -14 32 -37 44 -51
77 -88 109 -282 67 -412 -102 -320 -513 -420 -752 -183 -185 183 -181 475 9
652 34 32 78 67 99 78 l37 20 0 825 0 825 -53 29 c-68 39 -135 108 -174 182
-41 77 -55 133 -54 213 1 66 3 81 16 134 5 18 2 36 -10 55 -10 15 -161 171
-337 346 l-319 319 -52 -49 c-168 -160 -1629 -1627 -1705 -1712 -131 -147
-143 -171 -147 -284 -2 -51 -1 -105 2 -119 6 -34 71 -119 184 -243 162 -176
2470 -2480 2559 -2553 125 -104 145 -112 262 -107 136 6 175 25 313 155 151
142 2396 2388 2518 2519 123 132 144 174 151 300 6 115 -5 146 -90 246 -104
123 -173 193 -1379 1400 -1077 1077 -1294 1289 -1390 1349 -32 20 -171 29
-230 15z"/>
</g>
</svg>
